# xmcd
#
# Track frame offsets: 
#        150
#        25615
#        61012
#        116272
#        142587
#        173995
#
# Disc length: 2918 seconds
#
# Revision: 1
# Processed by: cddbd v1.5.2PL0 Copyright (c) Steve Scherf et al.
# Submitted via: ExactAudioCopy v0.99pb4
#
DISCID=3b0b6406
DTITLE=Toshiyuki Honda - Dream
DYEAR=1984
DGENRE=Jazz
TTITLE0=Dream Comes True
TTITLE1=Sophisticated Lady
TTITLE2=Co-Motion
TTITLE3=I Hear A Rhapsody
TTITLE4=Alice In Wonderland
TTITLE5=Ode To Siddhartha
EXTD=YEAR: 1984
EXTT0=
EXTT1=
EXTT2=
EXTT3=
EXTT4=
EXTT5=
PLAYORDER=
